<svg width="30" height="25" fill="#2c638b" version="1.1" xmlns="http://www.w3.org/2000/svg" xmlns:xlink="http://www.w3.org/1999/xlink" x="0px" y="0px" viewBox="0 0 1000 1000" enable-background="new 0 0 1000 1000" xml:space="preserve">
    <metadata> Svg Vector Icons : http://www.onlinewebfonts.com/icon </metadata>
    <g><g transform="translate(0.000000,511.000000) scale(0.100000,-0.100000)"><path d="M3032.2,3047.1c-109.8-72.5-455.8-385.3-667.1-602.9c-234.1-236.2-256.9-279.7-192.7-370.9c16.6-24.9,232-190.6,476.5-370.8c242.4-180.2,439.2-333.5,433-343.9c-18.6-29-497.2-18.6-731.3,16.6c-240.3,35.2-513.8,118.1-702.3,213.4c-118.1,60.1-397.8,267.3-457.9,339.8c-41.4,51.8-172,45.6-223.8-10.4c-138.8-151.2-441.3-710.6-584.2-1083.5C48.8-27.4,11.6-738,266.4-1303.6c95.3-207.2,178.2-323.2,364.6-503.4l159.5-157.4l-29-111.9c-72.5-275.5,78.7-573.9,368.8-729.3c76.7-41.4,118.1-47.6,306.6-47.6c194.7,0,227.9,6.2,321.1,55.9c132.6,68.4,248.6,186.5,317,317c45.6,85,55.9,132.6,55.9,265.2v159.5h74.6h74.6l12.4-155.4c22.8-267.2,155.4-468.2,391.6-594.6c76.7-41.4,118.1-47.6,306.6-47.6c196.8,0,227.9,6.2,321.1,55.9c126.4,66.3,259,201,323.2,327.3c35.2,70.4,49.7,132.6,51.8,248.6l4.1,155.4l762.4,6.2l764.5,4.1v-169.9c2.1-200.9,41.4-298.3,182.3-439.2c134.7-134.7,261.1-186.5,470.3-194.7c140.9-6.2,198.9,2.1,294.2,37.3c155.4,58,308.7,203,381.2,360.5c47.7,105.7,53.9,138.8,45.6,283.8l-10.4,163.7h95.3h95.3v-190.6c0-161.6,8.3-207.2,47.6-281.7c66.3-124.3,201-254.8,325.3-314.9c149.2-74.6,410.2-82.9,573.9-20.7c155.4,58,308.7,203,379.1,358.4c49.7,105.7,53.8,138.8,45.6,269.3c-6.2,82.9-16.6,172-24.9,201c-12.4,47.6-2.1,55.9,122.2,109.8c198.9,87,731.3,387.4,950.9,536.6c267.3,182.3,549,468.2,638.1,650.5c58,118.1,70.4,163.7,70.4,277.6C9897.9-10.8,9578.9,171.5,8035.4,646c-1040,319-1539.3,501.4-2185.7,799.7c-756.2,348.1-1661.5,890.9-2374.2,1419.1C3152.3,3105.1,3129.5,3115.5,3032.2,3047.1z M3394.7,2514.7c283.8-207.2,857.7-584.2,1160.2-762.4c1008.9-594.6,1932.9-990.3,3252.6-1386c876.3-263.1,1212-381.2,1483.4-517.9c354.3-178.2,377.1-348,78.8-629.8c-252.8-240.3-607-470.3-1114.6-725.1c-312.8-155.4-207.2-140.9-1369.4-176.1c-2492.3-72.5-4798.2-66.3-5769.8,14.5c-163.7,12.4-165.7,14.5-275.5,118.1c-559.4,528.3-557.3,1487.5,8.3,2633.2c72.5,149.2,159.5,312.8,194.7,366.7l60.1,97.4l194.7-128.4c323.2-215.5,706.5-343.9,1176.8-389.5c435.1-41.4,1075.2,18.6,1172.6,109.8c53.9,49.7,64.2,153.3,22.8,207.2c-14.5,18.6-265.2,207.2-555.2,420.6c-290,213.4-536.6,395.7-544.9,404c-24.9,20.7,546.9,540.7,573.9,522.1C3156.5,2686.6,3270.4,2605.8,3394.7,2514.7z M1656.5-2032.8c91.2-2.1,107.7-8.3,128.4-53.9c64.2-140.9,4.1-339.8-122.2-408.1c-80.8-43.5-343.9-51.8-418.5-14.5c-130.5,68.4-194.8,200.9-169.9,350.1c22.8,140.9,55.9,157.5,281.8,143C1463.8-2024.5,1598.5-2032.8,1656.5-2032.8z M7782.7-2053.5c49.7-85,45.6-263.1-6.2-350.1c-53.9-89.1-153.3-128.4-321.1-128.4c-252.8,0-362.6,93.2-362.6,312.8c0,87,10.4,130.5,43.5,172c41.4,53.9,43.5,53.9,327.4,53.9h283.8L7782.7-2053.5z M6243.4-2074.2c31.1-60.1,24.9-244.5-10.4-314.9c-53.9-101.5-143-142.9-317-142.9c-265.2,0-377.1,89.1-377.1,306.6c0,192.7-4.2,190.6,362.6,190.6C6195.7-2034.9,6222.6-2039,6243.4-2074.2z M3342.9-2095c33.1-64.2,24.9-213.4-16.6-290c-58-105.7-151.2-147.1-335.6-147.1c-242.4,0-343.9,82.9-366.7,298.3c-18.6,186.5-35.2,178.2,354.3,178.2C3295.3-2055.6,3322.2-2057.7,3342.9-2095z"></path>
            <path d="M5265.5,973.3C5193,942.2,3305.6-669.6,3295.3-709c-14.5-60.1,22.8-161.6,68.4-186.5c109.8-60.1,122.2-51.8,1058.7,737.6C5547.3,791,5476.8,726.7,5476.8,811.7C5476.8,927.7,5362.9,1014.7,5265.5,973.3z"></path>
            <path d="M5101.8-276c-528.3-445.4-967.5-820.4-975.8-834.9c-22.8-33.2-20.7-132.6,4.2-178.2c29-55.9,126.4-82.9,190.6-53.9c87,37.3,1957.8,1624.2,1970.2,1671.9c14.5,58-22.8,159.5-68.4,184.4C6110.8,573.4,6104.6,569.3,5101.8-276z"></path>
        </g></g>
</svg>
