<svg width="30" height="25" fill="#699e54" version="1.1" xmlns="http://www.w3.org/2000/svg" xmlns:xlink="http://www.w3.org/1999/xlink" x="0px" y="0px" viewBox="0 0 1000 1000" enable-background="new 0 0 1000 1000" xml:space="preserve">
    <metadata> Svg Vector Icons : http://www.onlinewebfonts.com/icon </metadata>
    <g><g transform="translate(0.000000,511.000000) scale(0.100000,-0.100000)"><path d="M168.3,2799.5l-68.3-68.3v-2625c2.4-2775.8-2.4-2665,110.8-2723.9c73-40.1,9507.8-40.1,9580.8,0c113.1,58.9,108.4-51.8,108.4,2728.6s4.7,2669.7-108.4,2728.6c-37.7,21.2-1234.7,28.3-4802.2,28.3H236.7L168.3,2799.5z M4812.7,1951.2v-542l-134.3-37.7c-440.6-127.2-801.2-492.5-911.9-921.3c-47.1-186.1-47.1-492.5,0-678.6c110.7-428.8,459.5-782.3,911.9-923.7l134.3-42.4v-537.2V-2269H2644.8H477v530.2v530.2h669.2c638.6,0,669.2,2.3,730.5,49.5l61.3,47.1V110.9v1222.9l-61.3,47.1c-61.3,47.1-91.9,49.5-730.5,49.5H477v530.2v530.2h2167.8h2167.8V1951.2z M9525.3,1960.6v-530.2h-671.6h-673.9l-56.6-58.9l-58.9-56.5V101.5v-1213.5l61.3-47.1c61.3-47.1,91.9-49.5,730.4-49.5h669.2v-530.2V-2269H7357.5H5189.7v537.2v537.2l139,28.3c450,94.2,845.9,471.3,982.6,935.5c54.2,186.2,54.2,497.2,0,683.3c-136.7,464.2-542,855.3-975.5,937.8l-146.1,28.3v534.9v537.2h2167.8h2167.8V1960.6z M1560.9,110.9v-942.5h-542H477v942.5v942.5h542h542V110.9z M9525.3,110.9v-942.5h-542h-542v942.5v942.5h542h542V110.9z M4807.9-350.9l-7.1-459.5L4633.6-728c-200.3,101.3-362.9,263.9-452.4,457.1c-56.6,117.8-63.6,162.6-63.6,381.7c0,219.1,7.1,263.9,63.6,381.7c89.5,193.2,252.1,355.8,452.4,457.1l167.3,82.5l7.1-459.5C4810.3,318.2,4810.3-96.5,4807.9-350.9z M5463,947.4c66-33,174.4-113.1,242.7-179.1c365.2-367.6,362.9-949.6-4.7-1317.2c-120.2-120.2-299.3-223.9-433.6-249.8l-77.8-14.2v923.7v926l77.8-16.5C5307.5,1013.3,5397,978,5463,947.4z"></path></g></g>
</svg>
